<svg width="1200" height="900" viewBox="0 0 1200 900" fill="none" xmlns="http://www.w3.org/2000/svg">
  <defs>
    <linearGradient id="bg" x1="0" y1="0" x2="1200" y2="900" gradientUnits="userSpaceOnUse">
      <stop stop-color="#ECFCCB"/>
      <stop offset="1" stop-color="#FFFFFF"/>
    </linearGradient>
  </defs>
  <rect width="1200" height="900" fill="url(#bg)"/>
  <rect x="80" y="80" width="1040" height="740" rx="44" fill="white" fill-opacity="0.82"/>

  <g transform="translate(420 180)">
    <rect x="80" y="90" width="200" height="230" rx="28" fill="#65A30D" fill-opacity="0.16" stroke="#65A30D" stroke-width="6"/>
    <rect x="130" y="315" width="100" height="165" rx="18" fill="#3F6212" fill-opacity="0.22" stroke="#3F6212" stroke-width="6"/>
    <rect x="55" y="115" width="45" height="110" rx="18" fill="#65A30D" fill-opacity="0.14" stroke="#65A30D" stroke-width="6"/>
    <rect x="260" y="115" width="45" height="110" rx="18" fill="#65A30D" fill-opacity="0.14" stroke="#65A30D" stroke-width="6"/>
    <path d="M135 110 L180 150 L225 110" stroke="#3F6212" stroke-width="10" stroke-linecap="round" stroke-linejoin="round"/>
    <circle cx="180" cy="188" r="7" fill="#3F6212"/>
    <circle cx="180" cy="218" r="7" fill="#3F6212"/>
    <circle cx="180" cy="248" r="7" fill="#3F6212"/>
  </g>

  <rect x="118" y="122" width="164" height="48" rx="24" fill="#65A30D"/>
  <text x="200" y="154" fill="white" font-size="24" font-family="Plus Jakarta Sans, Arial, sans-serif" text-anchor="middle" font-weight="700">Shoes</text>

  <text x="600" y="735" fill="#0F172A" font-size="44" font-family="Plus Jakarta Sans, Arial, sans-serif" text-anchor="middle" font-weight="800">PE Sneakers</text>
  <text x="600" y="780" fill="#475569" font-size="26" font-family="Plus Jakarta Sans, Arial, sans-serif" text-anchor="middle" font-weight="600">School Marketplace Sample Image</text>
</svg>
